<svg width="253" height="50" viewBox="0 0 253 50" fill="none" xmlns="http://www.w3.org/2000/svg">
<path fill-rule="evenodd" clip-rule="evenodd" d="M10.1183 40.0016H0V29.9992H10.1183V40.0016C20.2408 40.0016 30.3592 40.0016 40.4817 40.0016C40.4817 26.665 40.4817 13.3325 40.4817 0H50.6C50.6 13.3325 50.6 26.665 50.6 40.0016H40.4817V50C30.3592 50 20.2408 50 10.1183 50V40.0016V40.0016Z" fill="white"/>
<path fill-rule="evenodd" clip-rule="evenodd" d="M60.7225 50H70.8409C70.8409 40.0016 70.8409 29.9992 70.8409 20.0008H60.7225C60.7225 29.9992 60.7225 40.0016 60.7225 50ZM70.8409 0H60.7225V9.99835H70.8409V0Z" fill="white"/>
<path fill-rule="evenodd" clip-rule="evenodd" d="M192.282 40.0016H182.163C168.667 40.0016 155.174 40.0016 141.682 40.0016V50C155.174 50 168.667 50 182.163 50V40.0016V29.9992V20.0008C172.041 20.0008 161.922 20.0008 151.8 20.0008V9.99835V0C165.292 0 178.789 0 192.282 0V9.99835C178.789 9.99835 165.292 9.99835 151.8 9.99835H141.682V20.0008H151.8V29.9992C161.922 29.9992 172.041 29.9992 182.163 29.9992H192.282V40.0016Z" fill="white"/>
<path fill-rule="evenodd" clip-rule="evenodd" d="M253 0H242.882C242.882 13.3325 242.882 26.665 242.882 40.0016V50C232.763 50 222.641 50 212.523 50V40.0016H202.4C202.4 26.665 202.4 13.3325 202.4 0H212.523C212.523 13.3325 212.523 26.665 212.523 40.0016H253C253 26.665 253 13.3325 253 0Z" fill="white"/>
<path fill-rule="evenodd" clip-rule="evenodd" d="M131.559 0V9.99835H111.323V20.0008V29.9992H101.2V9.99835H80.9592V0C97.8258 0 114.693 0 131.559 0V0Z" fill="white"/>
<path fill-rule="evenodd" clip-rule="evenodd" d="M121.441 40.0017H131.559V50.0001H121.441V40.0017ZM80.9592 40.0017C91.0817 40.0017 101.2 40.0017 111.323 40.0017V50.0001C101.2 50.0001 91.0817 50.0001 80.9592 50.0001V40.0017Z" fill="#FFCC2A"/>
</svg>
